<svg width="92" height="92" viewBox="0 0 92 92" fill="none" xmlns="http://www.w3.org/2000/svg">
<rect x="2" y="2" width="88" height="88" fill="white" stroke="black" stroke-width="4"/>
<path d="M44.081 70V36.976H48.817V40.816H49.073C49.585 39.536 50.3103 38.448 51.249 37.552C52.1877 36.656 53.5743 36.208 55.409 36.208C57.329 36.208 58.7583 36.6987 59.697 37.68C60.6357 38.6187 61.2117 39.856 61.425 41.392H61.617C62.2143 39.8987 63.0677 38.6613 64.177 37.68C65.2863 36.6987 66.8223 36.208 68.785 36.208C71.473 36.208 73.265 37.1467 74.161 39.024C75.0997 40.9013 75.569 43.5893 75.569 47.088V70H70.833V47.92C70.833 45.104 70.5343 43.1627 69.937 42.096C69.3823 40.9867 68.337 40.432 66.801 40.432C65.4357 40.432 64.3263 40.88 63.473 41.776C62.6197 42.6293 62.193 43.952 62.193 45.744V70H57.457V47.92C57.457 45.104 57.1583 43.1627 56.561 42.096C56.0063 40.9867 54.9823 40.432 53.489 40.432C52.1237 40.432 50.993 40.88 50.097 41.776C49.2437 42.6293 48.817 43.952 48.817 45.744V70H44.081Z" fill="black"/>
</svg>
